<svg width="14" height="14" viewBox="0 0 14 14" fill="none" xmlns="http://www.w3.org/2000/svg">
<path fill-rule="evenodd" clip-rule="evenodd" d="M3.75 1C3.29231 1 2.84946 1.17435 2.51985 1.49078C2.18955 1.80787 2 2.24239 2 2.7V12.3C2 12.7576 2.18955 13.1921 2.51985 13.5092C2.84946 13.8256 3.29231 14 3.75 14H11.25C11.7077 14 12.1505 13.8256 12.4801 13.5092C12.8105 13.1921 13 12.7576 13 12.3V5.1C13 4.96385 12.9445 4.83359 12.8463 4.73931L9.09627 1.13931C9.00315 1.04992 8.87908 1 8.75 1H8.33398H3.75ZM7.83398 2H3.75C3.54465 2 3.35161 2.0785 3.21238 2.21217C3.07384 2.34516 3 2.52109 3 2.7V12.3C3 12.4789 3.07384 12.6548 3.21238 12.7878C3.35161 12.9215 3.54465 13 3.75 13H11.25C11.4553 13 11.6484 12.9215 11.7876 12.7878C11.9262 12.6548 12 12.4789 12 12.3V5.47178C11.9481 5.49006 11.8922 5.5 11.834 5.5H8.33398C8.05784 5.5 7.83398 5.27614 7.83398 5V2ZM11.153 4.5H8.83398V2.27373L11.153 4.5ZM7.16699 5.83325C7.44313 5.83325 7.66699 6.05711 7.66699 6.33325V7.58325H8.91699C9.19313 7.58325 9.41699 7.80711 9.41699 8.08325C9.41699 8.35939 9.19313 8.58325 8.91699 8.58325H7.66699V9.83325C7.66699 10.1094 7.44313 10.3333 7.16699 10.3333C6.89085 10.3333 6.66699 10.1094 6.66699 9.83325V8.58325H5.41699C5.14085 8.58325 4.91699 8.35939 4.91699 8.08325C4.91699 7.80711 5.14085 7.58325 5.41699 7.58325H6.66699V6.33325C6.66699 6.05711 6.89085 5.83325 7.16699 5.83325Z" fill="#31BA7E"/>
</svg>
