<svg width="18" height="18" viewBox="0 0 18 18" fill="none" xmlns="http://www.w3.org/2000/svg">
<path fill-rule="evenodd" clip-rule="evenodd" d="M2.26723 2.26723C2.43834 2.09613 2.67041 2 2.91239 2H9.26815C9.51014 2 9.74221 2.09613 9.91331 2.26723C10.0844 2.43834 10.1805 2.67041 10.1805 2.91239V3.61858C10.1805 3.89473 10.4044 4.11858 10.6805 4.11858C10.9567 4.11858 11.1805 3.89473 11.1805 3.61858V2.91239C11.1805 2.40519 10.9791 1.91877 10.6204 1.56013C10.2618 1.20148 9.77535 1 9.26815 1H2.91239C2.40519 1 1.91877 1.20148 1.56013 1.56013C1.20148 1.91877 1 2.40519 1 2.91239V9.26814C1 9.77534 1.20148 10.2618 1.56013 10.6204C1.91877 10.979 2.40519 11.1805 2.91239 11.1805H3.61859C3.89473 11.1805 4.11859 10.9567 4.11859 10.6805C4.11859 10.4044 3.89473 10.1805 3.61859 10.1805H2.91239C2.67041 10.1805 2.43834 10.0844 2.26723 9.91329C2.09613 9.74219 2 9.51012 2 9.26814V2.91239C2 2.67041 2.09613 2.43834 2.26723 2.26723ZM6.81964 7.73211C6.81964 7.22821 7.22813 6.81972 7.73203 6.81972H14.0878C14.5917 6.81972 15.0002 7.22821 15.0002 7.73211V14.0879C15.0002 14.5918 14.5917 15.0002 14.0878 15.0002H7.73203C7.22813 15.0002 6.81964 14.5918 6.81964 14.0879V7.73211ZM7.73203 5.81972C6.67585 5.81972 5.81964 6.67593 5.81964 7.73211V14.0879C5.81964 15.144 6.67585 16.0002 7.73203 16.0002H14.0878C15.144 16.0002 16.0002 15.144 16.0002 14.0879V7.73211C16.0002 6.67593 15.144 5.81972 14.0878 5.81972H7.73203Z" fill="black"/>
</svg>
