<svg width="14" height="14" viewBox="0 0 14 14" fill="none" xmlns="http://www.w3.org/2000/svg">
<path d="M8.16634 1.16675H3.49967C3.19026 1.16675 2.89351 1.28966 2.67472 1.50846C2.45592 1.72725 2.33301 2.024 2.33301 2.33341V11.6667C2.33301 11.9762 2.45592 12.2729 2.67472 12.4917C2.89351 12.7105 3.19026 12.8334 3.49967 12.8334H10.4997C10.8091 12.8334 11.1058 12.7105 11.3246 12.4917C11.5434 12.2729 11.6663 11.9762 11.6663 11.6667V4.66675L8.16634 1.16675Z" stroke="white" stroke-linecap="round" stroke-linejoin="round"/>
<path d="M8.16634 1.16675H3.49967C3.19026 1.16675 2.89351 1.28966 2.67472 1.50846C2.45592 1.72725 2.33301 2.024 2.33301 2.33341V11.6667C2.33301 11.9762 2.45592 12.2729 2.67472 12.4917C2.89351 12.7105 3.19026 12.8334 3.49967 12.8334H10.4997C10.8091 12.8334 11.1058 12.7105 11.3246 12.4917C11.5434 12.2729 11.6663 11.9762 11.6663 11.6667V4.66675L8.16634 1.16675Z" stroke="#FC7334" stroke-linecap="round" stroke-linejoin="round"/>
<path d="M8.16699 1.16675V4.66675H11.667" stroke="white" stroke-linecap="round" stroke-linejoin="round"/>
<path d="M8.16699 1.16675V4.66675H11.667" stroke="#FC7334" stroke-linecap="round" stroke-linejoin="round"/>
<path d="M9.33366 7.58325H4.66699" stroke="white" stroke-linecap="round" stroke-linejoin="round"/>
<path d="M9.33366 7.58325H4.66699" stroke="#FC7334" stroke-linecap="round" stroke-linejoin="round"/>
<path d="M9.33366 9.91675H4.66699" stroke="white" stroke-linecap="round" stroke-linejoin="round"/>
<path d="M9.33366 9.91675H4.66699" stroke="#FC7334" stroke-linecap="round" stroke-linejoin="round"/>
<path d="M5.83366 5.25H5.25033H4.66699" stroke="white" stroke-linecap="round" stroke-linejoin="round"/>
<path d="M5.83366 5.25H5.25033H4.66699" stroke="#FC7334" stroke-linecap="round" stroke-linejoin="round"/>
</svg>
