<svg width="14" height="14" viewBox="0 0 14 14" fill="none" xmlns="http://www.w3.org/2000/svg">
<path d="M6.41699 2.3335H2.33366C2.02424 2.3335 1.72749 2.45641 1.5087 2.6752C1.28991 2.894 1.16699 3.19074 1.16699 3.50016V11.6668C1.16699 11.9762 1.28991 12.273 1.5087 12.4918C1.72749 12.7106 2.02424 12.8335 2.33366 12.8335H10.5003C10.8097 12.8335 11.1065 12.7106 11.3253 12.4918C11.5441 12.273 11.667 11.9762 11.667 11.6668V7.5835" stroke="#325AE7" stroke-linecap="round" stroke-linejoin="round"/>
<path d="M10.792 1.45838C11.0241 1.22632 11.3388 1.09595 11.667 1.09595C11.9952 1.09595 12.3099 1.22632 12.542 1.45838C12.7741 1.69045 12.9044 2.0052 12.9044 2.33338C12.9044 2.66157 12.7741 2.97632 12.542 3.20838L7.00032 8.75005L4.66699 9.33338L5.25033 7.00005L10.792 1.45838Z" stroke="#325AE7" stroke-linecap="round" stroke-linejoin="round"/>
</svg>
