<svg width="17" height="12" viewBox="0 0 17 12" fill="none" xmlns="http://www.w3.org/2000/svg">
<path fill-rule="evenodd" clip-rule="evenodd" d="M5.77273 1.5C3.43463 1.5 1.5 3.49254 1.5 6C1.5 8.50746 3.43463 10.5 5.77273 10.5H11.2273C13.5654 10.5 15.5 8.50746 15.5 6C15.5 3.49254 13.5654 1.5 11.2273 1.5H5.77273ZM0.5 6C0.5 2.98461 2.83902 0.5 5.77273 0.5H11.2273C14.161 0.5 16.5 2.98461 16.5 6C16.5 9.01539 14.161 11.5 11.2273 11.5H5.77273C2.83902 11.5 0.5 9.01539 0.5 6Z" fill="black"/>
<path fill-rule="evenodd" clip-rule="evenodd" d="M3.5 6C3.5 4.61929 4.61929 3.5 6 3.5C7.38071 3.5 8.5 4.61929 8.5 6C8.5 7.38071 7.38071 8.5 6 8.5C4.61929 8.5 3.5 7.38071 3.5 6Z" fill="black"/>
</svg>
