<svg width="18" height="18" viewBox="0 0 18 18" fill="none" xmlns="http://www.w3.org/2000/svg">
<path fill-rule="evenodd" clip-rule="evenodd" d="M8.50001 0.5C8.69387 0.5 8.87025 0.612052 8.95263 0.787533L11.1569 5.4832L16.076 6.23924C16.2612 6.2677 16.4149 6.3973 16.4742 6.57501C16.5336 6.75271 16.4887 6.94869 16.3578 7.08274L12.7841 10.7428L13.6285 15.9195C13.6593 16.1085 13.5795 16.2985 13.423 16.4088C13.2664 16.519 13.0606 16.5302 12.8931 16.4376L8.50001 14.0083L4.10698 16.4376C3.9394 16.5302 3.73362 16.519 3.57708 16.4088C3.42053 16.2985 3.34071 16.1085 3.37153 15.9195L4.21589 10.7428L0.64226 7.08274C0.511372 6.94869 0.46641 6.75271 0.525777 6.57501C0.585144 6.3973 0.738874 6.2677 0.924056 6.23924L5.84315 5.4832L8.0474 0.787533C8.12978 0.612052 8.30616 0.5 8.50001 0.5ZM8.50001 2.17665L6.63513 6.14938C6.56434 6.30016 6.42311 6.4058 6.25847 6.43111L2.03711 7.07991L5.10777 10.2248C5.21868 10.3384 5.26905 10.4979 5.24349 10.6546L4.52428 15.0641L8.25805 12.9994C8.40862 12.9161 8.59141 12.9161 8.74198 12.9994L12.4758 15.0641L11.7565 10.6546C11.731 10.4979 11.7814 10.3384 11.8923 10.2248L14.9629 7.07991L10.7416 6.43111C10.5769 6.4058 10.4357 6.30016 10.3649 6.14938L8.50001 2.17665Z" fill="black"/>
</svg>
