<svg width="18" height="18" viewBox="0 0 18 18" fill="none" xmlns="http://www.w3.org/2000/svg">
<path fill-rule="evenodd" clip-rule="evenodd" d="M13.4932 1.87738C12.2019 1.14051 10.7119 0.856069 9.24838 1.06862C7.7875 1.28078 6.43539 1.97614 5.39406 3.04684L3 5.36898V2.21584C3 1.93969 2.77614 1.71584 2.5 1.71584C2.22386 1.71584 2 1.93969 2 2.21584L2 6.54996L2 6.55063C2 6.55134 2 6.55205 2 6.55276C2.00115 6.82792 2.22457 7.05063 2.5 7.05063H6.69936C6.9755 7.05063 7.19936 6.82677 7.19936 6.55063C7.19936 6.27449 6.9755 6.05063 6.69936 6.05063H3.73352L6.09563 3.75948L6.10633 3.74878C6.99727 2.83066 8.15079 2.23851 9.3921 2.05824C10.6333 1.87798 11.8984 2.11872 12.9975 2.74592C14.0969 3.37328 14.9721 4.35429 15.4881 5.54379C16.0042 6.73346 16.132 8.06514 15.8516 9.33734C15.5711 10.6094 14.8984 11.7502 13.9378 12.5893C12.9775 13.4281 11.7814 13.9202 10.5301 13.9945C9.27894 14.0689 8.03682 13.7216 6.99067 13.0028C5.94423 12.2838 5.14969 11.2312 4.72993 10.0013C4.64073 9.74 4.35657 9.60046 4.09523 9.68965C3.83389 9.77885 3.69434 10.063 3.78354 10.3244C4.27139 11.7537 5.19711 12.9838 6.42437 13.827C7.65192 14.6705 9.11378 15.0804 10.5894 14.9928C12.065 14.9051 13.4709 14.3248 14.5956 13.3424C15.7201 12.3602 16.5025 11.0297 16.8281 9.55262C17.1537 8.07568 17.0057 6.52935 16.4055 5.14581C15.8052 3.76209 14.7842 2.61407 13.4932 1.87738Z" fill="black"/>
</svg>
